Coordinates
version=1
nRows=12
nColumns=38
inDegrees=yes

Units are S.I. units (second, meters, Newtons, ...)
If the header above contains a line with 'inDegrees', this indicates whether rotational values are in degrees (yes) or radians (no).

endheader
time	pelvis_tilt	pelvis_list	pelvis_rotation	pelvis_tx	pelvis_ty	pelvis_tz	hip_flexion_r	hip_adduction_r	hip_rotation_r	knee_angle_r	ankle_angle_r	subtalar_angle_r	mtp_angle_r	hip_flexion_l	hip_adduction_l	hip_rotation_l	knee_angle_l	ankle_angle_l	subtalar_angle_l	mtp_angle_l	lumbar_extension	lumbar_bending	lumbar_rotation	arm_flex_r	arm_add_r	arm_rot_r	elbow_flex_r	pro_sup_r	wrist_flex_r	wrist_dev_r	arm_flex_l	arm_add_l	arm_rot_l	elbow_flex_l	pro_sup_l	wrist_flex_l	wrist_dev_l
      1.46000000	      0.01160848	      6.24121371	    -89.61378610	      0.26822428	      0.93139211	      0.54617064	     31.18895682	     -0.76672082	     -2.86042691	    -56.37553141	     -3.29506913	      0.00000000	      0.00000000	     13.04013395	      4.65998087	     -1.78661895	    -10.87997691	     -0.98301501	      0.00000000	      0.00000000	      0.12767576	     -0.12200575	     -5.78871236	     -0.70293440	    -11.05038831	     -3.79964611	     28.30493634	     86.50289596	      0.00000000	      0.00000000	      4.46313533	    -11.81485235	     -5.72683978	     29.26292564	     85.46965485	      0.00000000	      0.00000000
      1.47000000	      0.08394008	      6.52989791	    -89.55687501	      0.26900233	      0.93159409	      0.55752375	     32.19515172	     -0.66683440	     -2.70400177	    -53.51159800	     -2.90673286	      0.00000000	      0.00000000	     12.03914658	      4.79864276	     -1.85276509	     -9.89659555	     -0.74354106	      0.00000000	      0.00000000	      0.32647250	     -0.13554053	     -6.15905216	     -0.96037118	    -11.01833306	     -3.82277705	     28.23208024	     86.50107821	      0.00000000	      0.00000000	      5.05999364	    -12.01369376	     -5.68774697	     29.69018811	     85.47009992	      0.00000000	      0.00000000
      1.48000000	      0.01787306	      6.26028009	    -89.49561765	      0.26965419	      0.93244629	      0.56924930	     32.39105177	     -0.38158145	     -2.55650810	    -50.30852421	     -2.32607389	      0.00000000	      0.00000000	     10.25700587	      4.80773675	     -1.59318541	     -8.60282850	     -0.65543444	      0.00000000	      0.00000000	     -0.16180943	      0.01967550	     -6.48514688	     -1.17747757	    -10.96041390	     -4.07124809	     28.24850920	     86.47223396	      0.00000000	      0.00000000	      5.46301559	    -12.36003678	     -5.19712465	     30.67106781	     85.47066920	      0.00000000	      0.00000000
      1.49000000	      0.07453779	      6.43228856	    -89.42224207	      0.27032803	      0.93224336	      0.58078957	     33.02724411	     -0.24678500	     -2.36701080	    -47.02131878	     -1.94887201	      0.00000000	      0.00000000	      9.08456431	      4.94326156	     -1.41031633	     -7.55939755	     -0.43903064	      0.00000000	      0.00000000	     -0.10297123	      0.01945689	     -6.81794949	     -1.43965440	    -10.91992201	     -4.17737212	     28.20207223	     86.46964872	      0.00000000	      0.00000000	      5.98809055	    -12.60724533	     -5.04023121	     31.27116167	     85.46934999	      0.00000000	      0.00000000
      1.50000000	      0.16100529	      6.31703532	    -89.33044481	      0.27101239	      0.93218565	      0.59258709	     33.22355876	     -0.17321344	     -2.22830041	    -43.53713468	     -1.64414464	      0.00000000	      0.00000000	      7.57711082	      5.09922522	     -1.27225544	     -6.49006674	     -0.23279188	      0.00000000	      0.00000000	     -0.36931856	     -0.00431004	     -7.18568709	     -1.67557427	    -10.85577603	     -4.37358302	     28.20778852	     86.39840664	      0.00000000	      0.00000000	      6.41312458	    -12.93472768	     -4.73774149	     32.10532280	     85.39320735	      0.00000000	      0.00000000
      1.51000000	      0.40656864	      6.61474351	    -89.22681969	      0.27174952	      0.93110431	      0.60420839	     33.86237169	     -0.29901092	     -2.07074558	    -40.05669584	     -1.34612895	      0.00000000	      0.00000000	      6.64121626	      5.42569521	     -1.28183581	     -5.65002037	      0.04301054	      0.00000000	      0.00000000	     -0.14510759	     -0.21462721	     -7.57319807	     -1.95055232	    -10.80235457	     -4.41485714	     28.16825603	     86.24999797	      0.00000000	      0.00000000	      6.92216298	    -13.17587565	     -4.70660277	     32.55476379	     85.26027407	      0.00000000	      0.00000000
      1.52000000	      0.48734381	      6.30151772	    -89.12249785	      0.27234694	      0.93076928	      0.61637405	     33.63698766	     -0.23734048	     -1.97706246	    -36.28575061	     -1.11012070	      0.00000000	      0.00000000	      4.86169849	      5.57038397	     -0.93685416	     -4.52560419	      0.29512177	      0.00000000	      0.00000000	     -0.61035903	     -0.23424810	     -7.92956908	     -2.15123649	    -10.71743699	     -4.71155105	     28.17548689	     86.33004002	      0.00000000	      0.00000000	      7.24330639	    -13.55711849	     -4.33158144	     33.60092061	     85.30256461	      0.00000000	      0.00000000
      1.53000000	      0.83139456	      6.62651747	    -88.99401683	      0.27310876	      0.92904783	      0.62818989	     34.17157703	     -0.52250449	     -1.93672590	    -32.66057301	     -0.77215578	      0.00000000	      0.00000000	      4.02422690	      5.99622920	     -0.94510027	     -3.85535699	      0.56228047	      0.00000000	      0.00000000	     -0.32723220	     -0.55790175	     -8.28940927	     -2.44806178	    -10.66438174	     -4.74705753	     28.11744491	     86.17377914	      0.00000000	      0.00000000	      7.74808633	    -13.77929527	     -4.32746591	     34.01854432	     85.16473677	      0.00000000	      0.00000000
      1.54000000	      0.96973006	      6.31587123	    -88.89588990	      0.27363773	      0.92812507	      0.64065932	     33.81406692	     -0.53344260	     -1.88512855	    -28.77323080	     -0.52792070	      0.00000000	      0.00000000	      2.23541806	      6.18737482	     -0.47702705	     -2.76523730	      0.91535273	      0.00000000	      0.00000000	     -0.76341855	     -0.64152429	     -8.63799491	     -2.62780179	    -10.55664685	     -5.13118694	     28.08162067	     86.31074384	      0.00000000	      0.00000000	      7.98364261	    -14.16410801	     -3.95776094	     35.06799719	     85.25417236	      0.00000000	      0.00000000
      1.55000000	      1.27152664	      6.37862427	    -88.77588990	      0.27427168	      0.92629998	      0.65301799	     33.89700141	     -0.77166499	     -1.95723474	    -25.03758315	     -0.19588487	      0.00000000	      0.00000000	      1.01002340	      6.55308385	     -0.16311545	     -1.98081925	      1.30426911	      0.00000000	      0.00000000	     -0.74914015	     -0.91250163	     -8.97534650	     -2.89701204	    -10.48394721	     -5.32484100	     28.00546093	     86.28315062	      0.00000000	      0.00000000	      8.34000117	    -14.45539019	     -3.83956252	     35.70109385	     85.21133848	      0.00000000	      0.00000000
      1.56000000	      1.61596576	      6.39100830	    -88.65152829	      0.27483608	      0.92429339	      0.66558966	     33.88889249	     -1.05155194	     -2.11104519	    -21.35975287	      0.21179701	      0.00000000	      0.00000000	     -0.26666324	      6.94516327	      0.13895585	     -1.24139400	      1.69519782	      0.00000000	      0.00000000	     -0.77120672	     -1.24397015	     -9.32884627	     -3.13381271	    -10.37856269	     -5.49908485	     27.93640141	     86.25092725	      0.00000000	      0.00000000	      8.64910632	    -14.71794615	     -3.74084548	     36.33952844	     85.16757987	      0.00000000	      0.00000000
      1.57000000	      1.97746716	      6.28450845	    -88.51462285	      0.27542016	      0.92224687	      0.67842688	     33.73521302	     -1.36617512	     -2.45755127	    -17.82396748	      0.68123905	      0.00000000	      0.00000000	     -1.67796303	      7.34173879	      0.46523066	     -0.52661928	      2.12696924	      0.00000000	      0.00000000	     -0.91743316	     -1.58710358	     -9.67348822	     -3.36147958	    -10.27327513	     -5.71717331	     27.83682956	     86.25464384	      0.00000000	      0.00000000	      8.90180029	    -14.99938602	     -3.62179416	     37.05341505	     85.15234386	      0.00000000	      0.00000000
